<svg xmlns="http://www.w3.org/2000/svg" width="200" height="200" viewBox="0 0 200 200">
<!-- SVG created with Arrow, by QuiverAI (https://quiver.ai) -->
  <path d="m100 4.73c-54.48 0-96.83 39.81-96.83 107.6 0 59.81 31.92 82.89 95.44 82.89h1c63.52 0 97.51-19.61 97.51-82.89 0-64.25-42.64-107.6-97.12-107.6z" fill="#F37552"/>
  <path d="m100 13.37c-49.2 0-88.53 36.66-88.53 95.97 0 55 24.75 76.11 85.62 76.11h2.02c60.89 0 88.93-17.8 88.93-73.27 0-59.92-38.84-98.81-88.04-98.81z" fill="#fc9"/>
  <path d="m11.46 109c0 49.93 21.95 61.41 82.55 61.08h3.86c58.84 0 83.82-14.74 89.78-50.35-2.14 49.87-27.21 66.09-88.01 66.09h-2.55c-58.05 0-85.63-15.76-85.63-76.82z" fill="#FFAE83"/>
  <path d="m42.17 103.5c-13.16 0-24.6 8.02-24.6 16.84 0 8.81 10.1 16.68 24.79 16.68 12.98 0 23.67-8.1 23.55-16.68-0.12-8.94-9.89-16.84-23.74-16.84z" fill="#FDAD87"/>
  <path d="m159.3 103.5c-12.95 0-22.93 8.5-22.93 17.08s9.89 16.32 22.71 16.32c12.83 0 24.84-7.8 24.84-16.7 0-8.1-9.12-16.7-24.62-16.7z" fill="#FDAD87"/>
  <path d="m61.38 80.96c-8.2-0.48-12.74 6.24-12.77 11.76-0.04 7.65 6 12.81 13.35 12.81 7.86 0 12.65-6.78 12.65-12.13 0-6.29-4.6-11.92-13.23-12.44z" fill="#F06E3E"/>
  <path d="m138.1 80.26c-8.33 0-13.16 6.65-13.16 12.25 0 7.47 5.79 13.11 13.15 13.11 7.72 0 12.6-7.46 12.53-12.46-0.11-7.68-5.53-12.9-12.52-12.9z" fill="#F06E3E"/>
  <path d="m117.1 77.3c-2.49-1.18-4.83 0.31-5.95 2.59-1.85 3.83 4 8.52 8.93 9.22 10.37 1.53 27.87-10.87 37.22-19.75 1.8-1.74 1.35-5.15-1.01-6.43-1.87-1-4.01-0.86-5.32 0.73-6.01 6.39-20.9 16.73-27.77 16.73-3.12 0-3.6-1.85-6.1-3.09z" fill="#F67955"/>
  <path d="m47.89 63.02c-2.86-1.74-5.98-0.04-6.41 3.13-0.34 2.58 1.06 3.91 3.04 5.66 8.16 6.98 20.27 17.03 31.74 17.61 7.02 0.36 11.68-5.07 12.34-7.47 0.91-3.24-2.43-6.16-5.42-4.98-2.37 0.96-1.7 3.11-4.77 3.51-7.53 1-23.92-12.16-30.52-17.46z" fill="#F67955"/>
  <path d="m100.4 105c-21.91-0.31-30.49 14.62-31.5 23.1-0.31 2.85 1.64 4.74 4.27 4.74 3.98 0 4.34-4.04 5.2-5.85 4.42-9.28 13.67-12.6 21.73-12.39 8.11 0.22 18.83 5.26 21.39 14.37 1.05 3.91 4.9 3.99 6.8 3.17 1.98-0.91 3.42-3.28 2.37-6.2-3.76-10.67-14.06-20.69-30.26-20.94z" fill="#F67955"/>
  <path d="m90.11 126.3c-2.96 1.42-2.89 4.52-1.08 5.99 1.74 1.44 4.18 0.06 5.3-0.72 2.35-1.44 4.43-1.58 6.28-1.58 5.12 0 6.01 3.25 9.19 2.89 2.61-0.31 3.71-2.81 2.91-4.51-1.2-2.69-8.06-6.05-14.65-5.57-2.53 0.2-5.56 2.24-7.95 3.5z" fill="#F67955"/>
  <path d="m144 124.5c3.3-0.09 4.16-7.19 5.91-8.07 0.81-0.17 0.1 4.53 0.1 6.55 0 2.6 2.02 4.54 4.79 4.54 4.06 0 6.55-9.21 9.18-9.96 1.25-0.22-0.53 5.78 1.94 9.95 1.58 2.91 6.53 2.23 8.99-3.31 1.75-4.01 3.07-4.17 3.59-6.05 0.66-2.33-1.66-5.04-4.3-3.37-2.07 1.24-4.15 6.93-4.9 7.45-0.43-0.76 0.12-5.49-2.68-8.81-1.31-1.69-4.1-2.28-6.62 0.47-2.15 2.05-3.83 6.2-4.49 6.41-0.46-0.27 1.09-5.37-1.76-8.6-1.45-1.78-5.13-1.66-7.69 1.82-2.94 3.49-3.67 6.55-3.93 7.3-0.83 1.96 0.13 3.66 1.87 3.68z" fill="#F67955"/>
  <path d="m25.74 124.4c3.12 1.22 4.18-3.29 5.4-5.38 0.8-1.41 1.65-2.53 2.11-2.39 0.47 0.14-2.09 5.32-1.04 8.61 0.91 3 5.43 3.54 7.7 0.81 3.16-3.75 5.18-8.09 6.46-8.38 1.22-0.15-0.46 6.41 1.22 9.3 1.73 2.99 6.78 2.56 8.79-1.09 1.53-3.08 1.74-4.38 3.63-6.34 2.08-2.09 0.88-4.78-1.36-5.52-3.03-0.96-5.24 6.08-6.99 8.59-0.32-1.16-0.19-6.31-2.91-9.65-1.52-2.01-5.09-1.58-7.24 1.61-2.18 3.23-3.6 5.65-4.39 6.21 0.1-1.75 1.06-5.02-1.09-8.46-1.07-2.06-4.21-2.89-7.14 0.16-3.18 3.39-4.07 6.02-4.96 8.38-0.75 1.85 0.03 2.99 1.81 3.54z" fill="#F67955"/>
  <path d="m56.57 85.06c-3.37 0.6-4.89 3.85-3.79 6.12 1.34 2.78 4.51 2.62 6.16 1.58 3.77-2.34 2.12-8.23-2.37-7.7z" fill="#F9D4B4"/>
  <path d="m67.41 94.48c-2.93 0.31-2.77 4.43-0.39 4.7 3.21 0.45 3.75-4.46 0.39-4.7z" fill="#F9D4B4"/>
  <path d="m133.8 85.9c-4.64 0.72-4.76 3.59-4.16 5.21 1.15 3.33 5.57 2.37 6.86-0.2 1.22-2.52 0.25-5.32-2.7-5.01z" fill="#F9D4B4"/>
  <path d="m143.7 94.8c-3.08 0.18-3.33 3.99-1.09 4.79 3 1.1 5.24-3.98 1.09-4.79z" fill="#F9D4B4"/>
</svg>