<svg xmlns="http://www.w3.org/2000/svg" width="200" height="200" fill="none" viewBox="0 0 200 200">
<!-- SVG created with Arrow, by QuiverAI (https://quiver.ai) -->
  <path d="m99.63 6.13c-51.89 0-93.52 41.62-93.52 93.5s41.63 93.98 93.52 93.98c51.88 0 94-42.1 94-93.98 0-51.89-42.12-93.5-94-93.5z" fill="#FEE5CD"/>
  <path d="m104.4 21.72c-19.58-0.61-37.37 5.51-51.39 15.94l-0.67 0.85c-11.68 8.78-21.28 20.11-26.81 34.08-8.53 14.4-9.36 30.67-5.81 48.39 7.46 37.14 39.43 56.51 76.03 56.51 44.08 0 82-34.46 82-77.87 0-39.93-32.84-77.91-73.35-77.91v0.01z" fill="#FDD0A3"/>
  <path d="m109 21.71c28.53 0.7 55.16 15.6 70.45 36.42-9.71-25.15-39.72-36.64-70.45-36.42z" fill="#FCAE8A"/>
  <path d="m182.8 57.64c7.48 13.81 8.9 26.51 8.9 41.98 0 49.27-39.84 93.65-93.16 93.65-24.29 0-42.32-9.41-50.84-15.66 10.17 6.45 24.69 11.45 42.86 12.3 52.9 2.61 99.27-36.7 99.27-89.29 0-15.36-3.06-28.94-7.03-42.98z" fill="#FCAE8A"/>
  <path d="m99.21 196.8c-53.26 0-96.15-42.89-96.15-96.15 0-18.49 5.06-36.35 14.82-51.63 1.32-2.08 3.22-1.88 4.89-0.74 1.67 1.15 1.53 4.19 0.38 5.86-8.76 13.96-13.6 30.17-13.6 46.52 0 49.15 40.51 89.66 89.66 89.66 50.31 0 95.61-40.22 91.31-94.62-3.73-46.78-41.34-86.24-91.31-86.24-16.51 0-33.13 4.83-48.13 14.25-1.81 1.14-4.24 0.59-5.37-1.22-1.14-1.81-0.21-4.41 1.6-5.55 15.77-9.98 32.21-14.37 51.9-14.37 53.26 0 98 43.8 98 96.92 0 51.66-43.15 97.31-98 97.31z" fill="#7A4230"/>
  <path d="m100 162.6c-5.74 0-8.53-3.41-9.02-6.3-0.85-4.87 4.82-6.83 8.56-6.83 3.82 0 10.33 1.53 10.33 6.53 0 4.24-3.44 6.6-9.87 6.6z" fill="#FDD0A3"/>
  <path d="m99.68 162.4c-4.92 0-7.12-1.27-8.56-0.2-2.29 0.1-2.41-3.42-1.59-4.64 1.26-0.52 3.59-1.54 9.83-1.54 5.19 0 8.55 1.21 9.99 1.77 1.98 0.82 2.14 4.7-0.44 5.09-2.04 0.33-2.92-1.26-9.23-0.48z" fill="#F8A386"/>
  <path d="m45.98 127c-10.05 0-16.26 4.1-16.26 8.97 0 5.37 6.97 8.77 16.26 8.77s15-4.63 15-8.97c0-4.92-5.71-8.77-15-8.77z" fill="#FBA588"/>
  <path d="m153.4 127.2c-10.34 0-15.16 4.95-15.16 8.76 0 5.37 6.86 8.82 15.31 8.82 9.72 0 16.34-4.45 16.34-8.82 0-4.77-6.04-8.76-16.49-8.76z" fill="#FBA588"/>
  <path d="m40.26 8.56c-11.18 17.24-20.22 32.8-21.59 43.53-1.43 11.31 8.59 21.61 20.78 21.61h3.47c12.17 0 20.52-11.04 19.2-22.3-1.61-13.95-11.21-27.42-21.86-42.84z" fill="#A9E1ED"/>
  <path d="m40.26 14.32c6.34 8.62 10.86 20.51 11.39 30.51 0.56 10.56-7.84 17.5-15.52 16.97-7.05-0.48-10.67-3.38-14.04-6.47 0.75 8.92 9.52 15.03 16.21 15.03h3.33c10.57 0 18.6-10.13 16.29-20.52-2.9-12.5-10.51-24.04-17.66-35.53v0.01z" fill="#79CAD8"/>
  <path d="m41.79 77.14c-12.42 0-23.54-9.05-26.48-20.31-3.52-13.13 9.7-33.82 22.45-50.4 0.73-0.97 2.02-1.22 3.22-1.12 1.21 0.11 2.13 1.1 2.71 2.16 11.23 16.59 21.53 30.6 21.73 45.37 0.1 9.13-5.01 17.42-13.6 21.85-1.21 0.65-4.03 1.58-5.53 1.92-1.51 0.35-2.67 0.53-4.51 0.53h0.01zm-1.34-63.06c-13.17 20.61-18.36 32.14-17.99 39.68 0.43 8.37 8.61 16.29 18.5 16.15 10-0.16 17.06-9.43 16.82-17.08-0.3-9.76-9.42-25.47-17.33-38.76v0.01z" fill="#7A4230"/>
  <path d="m49.06 120.2c-5.3-2.47-8.9-8.55-8.9-14.07 0-10.5 7.85-19.72 17.98-19.72h0.44c10.13 0 18.98 8.73 18.98 19.23 0 6.71-3.28 12.99-6.75 15.36-1.57 1.04-8.19-2.06-21.75-0.8z" fill="#fff" stroke="#7A4230" stroke-linecap="round" stroke-linejoin="round" stroke-miterlimit="10" stroke-width="6.93"/>
  <path d="m64.91 109.8c-4 0-6.8-3-6.8-6.32 0-4.11 3-6.48 6.5-6.48 4.21 0 5.85 3.27 5.85 6.02 0 3.87-2.05 6.78-5.55 6.78z" fill="#7A4230"/>
  <path d="m130.3 120.4c-5.29-2.47-8.63-8.78-8.63-14.3 0-10.5 7.74-19.5 19.53-19.5h0.44c10.13 0 19.23 9 19.23 19.5 0 6.7-3.64 12.5-7.25 14.95-1.86 1.22-8.55-2.98-23.32-0.65z" fill="#fff" stroke="#7A4230" stroke-linecap="round" stroke-linejoin="round" stroke-miterlimit="10" stroke-width="6.93"/>
  <path d="m147.9 109.6c-4.47 0-6.43-3.55-6.43-6.1 0-3.95 2.81-6.6 6.21-6.6 4.5 0 6.28 3.45 6.28 6.1 0 3.7-2.39 6.6-6.06 6.6z" fill="#7A4230"/>
  <path d="m152.1 77.13c-11.28 0-19.95-3.57-25.44-10.3-1.48-1.89-0.91-4.4 0.75-5.6 1.64-0.92 3.45-0.52 4.37 0.96 4.53 5.75 12.03 8.36 20.33 8.53 2.37 0 3.46 1.81 3.31 3.62-0.16 1.96-1.21 2.79-3.31 2.79h-0.01z" fill="#7A4230"/>
  <path d="m47.89 77.35c-2.61 0-4.23-0.54-4.76-0.77-2.21-0.8-2.66-2.61-1.95-4.51 0.92-1.96 3.2-2.61 5.15-2.01 0.35 0.12 8.39 1.66 22.16-7.81 1.62-1.21 3.78-1.63 5.04 0 1.48 1.81 1 3.91-0.34 5.25-7.27 7.68-17.23 9.85-25.31 9.85h0.01z" fill="#7A4230"/>
  <path d="m73.36 147.8c3.87-4.01 6.32-4.56 9.9-2.91 4.13 1.9 5.12 3.58 9.75 1.9 3.19-1.15 3.6-3.27 7.01-3.05 3.33 0.22 5.49 3.24 9.27 3.67 4.98 0.56 6.7-4.93 11.1-3.82 2.06 0.54 3.75 2.22 6.06 4.6" stroke="#7A4230" stroke-linecap="round" stroke-linejoin="round" stroke-width="7.31"/>
  <path d="m30.31 40.02c-1.52 3.43-4.37 9.77-1.52 12.15 2.33 1.99 5.36 0.72 6.37-1.68 1.03-2.5 0.66-8.43 0.66-12.06 0-2.94-3.1-3.5-5.51 1.59z" fill="#fff"/>
</svg>