<svg xmlns="http://www.w3.org/2000/svg" width="249" height="235" viewBox="0 0 249 235">
<!-- SVG created with Arrow, by QuiverAI (https://quiver.ai) -->
  <path d="m123.3 3.52c-65.38 0-120.2 56.14-120.2 126.5 0 59.33 47.53 100.8 119.4 100.8h0.5c74.17 0 123-41.46 123-101.3 0-69.75-54.61-126-122.8-126z" fill="#AE6035"/>
  <path d="m123.1 13.59c-59.96 0-109.7 52.19-109.7 115.1 0 51.5 41.75 89.61 108.5 89.61h0.71c66.19 0 112.6-34.11 112.6-89.95 0-62.54-49.03-114.7-112.1-114.7z" fill="#FDC085"/>
  <path d="m128.5 25.64c-59.55 0-108.9 50.26-108.9 111.5 0 7.59 1.32 14.76 3.82 21.43 14.75 24.67 44.03 41.45 89.2 41.45h0.58c62.56 0 100.1-36.34 100.1-81.26 0-41.29-25.15-80.67-62.83-93.44-7.18 1.02-14.53 0.35-21.93 0.35z" fill="#FCEAC0"/>
  <path d="m123.1 13.61c-59.98 0-109.7 51.5-109.7 114.4 0 10.78 2.32 20.96 6.67 30.27-2.5-10.74-1.73-22.04-0.24-32.77 8.07-51.25 50.95-98.7 110-99.52 14.07-0.22 29.64 2.29 45.17 7.83-14.37-12.89-28.73-20.16-51.94-20.16z" fill="#FEFAE6"/>
  <path d="m74.51 129.2c11.31 0.5 19.63-5.01 25.1-13.27 1.93-3.09-0.54-6.66-3.43-6.55-1.72-0.07-3.02 0.6-3.54 1.73-4.83 7.9-10.61 9.04-17.24 9.16-7.28-0.16-12.91-4.44-16.59-9.16-1.74-2.42-7.49-2.28-8.17 2.29-0.31 2.16 0.72 3.78 2.21 5.53 5.59 6.71 12.48 10 21.66 10.27z" fill="#592A10"/>
  <path d="m172.3 129.2c11.31 0.5 19.63-5.01 25.1-13.27 1.93-2.79-0.03-6.63-2.91-6.51-1.92-0.31-3.67 0.43-4.16 1.55-4.52 7.06-10.67 9.3-17.28 9.3-7.06-0.19-12.82-3.79-16.34-9.15-1.9-2.32-6.54-2.56-8.23 1.07-0.86 2.24-0.12 4.23 1.35 5.99 5.58 7.24 13.2 10.75 22.47 11.02z" fill="#592A10"/>
  <path d="m123.8 151.1c8.94 0 15.4-5.83 18.78-13.62 1.33-3.77-1.87-6.2-4.63-5.7-1.74 0.16-2.9 1.24-3.3 2.87-2.18 6.27-6.7 8.02-10.87 8.25-5.3 0.02-8.68-3.05-10.17-7.99-1.33-3.26-7.41-4.21-8.07 1-0.47 3.14 4.93 15.19 18.26 15.19z" fill="#592A10"/>
  <path d="m55.75 148.5c5.82 0.37 7.49-3.22 7.23-5.88-0.53-4.58-5.1-5.74-9.71-5.24-3.73 0.45-4.99 3.5-4.88 5.67 0.41 3.87 3.61 5.34 7.36 5.45z" fill="#F9A59B"/>
  <path d="m71.5 160.1c5.48 0.34 6.92-3.45 6.68-5.42-0.47-3.82-3.76-5.07-7.5-4.71-3.5 0.43-5.41 3-5.41 5.27 0.17 3.41 2.94 4.81 6.23 4.86z" fill="#F9A59B"/>
  <path d="m52.45 163.4c3 0.59 3.8-1.5 3.67-3.24-0.4-2.66-2.61-3.1-4.49-2.81-2.08 0.38-2.87 2.06-2.82 3.38 0.29 1.95 1.63 2.7 3.64 2.67z" fill="#F9A59B"/>
  <path d="m192.5 148.5c5.82 0.37 7.49-3.22 7.24-5.88-0.54-4.58-5.1-5.74-9.72-5.24-3.73 0.45-4.98 3.5-4.87 5.67 0.4 3.87 3.61 5.34 7.35 5.45z" fill="#F9A59B"/>
  <path d="m176.8 160.1c5.48 0.34 6.92-3.45 6.69-5.42-0.48-3.82-3.77-5.07-7.51-4.71-3.49 0.43-5.4 3-5.4 5.27 0.17 3.41 2.93 4.81 6.22 4.86z" fill="#F9A59B"/>
  <path d="m195.8 163.4c3 0.59 3.8-1.5 3.67-3.24-0.39-2.66-2.61-3.1-4.49-2.81-2.08 0.38-2.87 2.06-2.81 3.38 0.28 1.95 1.63 2.7 3.63 2.67z" fill="#F9A59B"/>
</svg>