<svg xmlns="http://www.w3.org/2000/svg" width="250" height="250" fill="none" viewBox="0 0 250 250">
<!-- SVG created with Arrow, by QuiverAI (https://quiver.ai) -->
  <path d="m124.7 36.18h-0.06c-47.8 0-86.1 40.84-86.1 89.32 0 48.95 38.3 88.62 86.1 88.62h0.06c48.12 0 85.84-39.67 85.84-88.62 0-48.48-37.72-89.32-85.84-89.32z" fill="url(#paint0_linear_1567_62574)"/>
  <path d="m124.8 43.57c-44.85 0-78.61 38.14-78.61 82.46 0 44.88 33.98 81.14 78.66 81.14 45.06 0 78.33-36.26 78.33-81.14 0-43.86-33.32-82.46-78.38-82.46z" fill="url(#paint1_linear_1567_62574)"/>
  <path d="m124.4 51.02c-37.01 0-67.42 25.06-75.52 58.48 8.57-31.22 38.11-58.64 75.01-58.64 23.85 0 44.36 9.19 58.82 25.24-13.94-16.84-34.56-25.08-58.31-25.08z" fill="#FFEDB5"/>
  <path d="m110.6 90.29c-0.6 0-1.21-0.2-1.81-0.42-10.02-3.48-19.75-4.79-28.77-3.88-1.37 0.14-2.45 0.46-4.09 0.03-2.79-0.76-4.43-4.81-1.94-6.76 1.04-0.79 2.26-0.85 3.56-1.02 10.43-1.37 21.94 0.72 33.91 5.2 4.56 1.82 3.2 6.85-0.86 6.85z" fill="url(#paint2_linear_1567_62574)"/>
  <path d="m173.6 80.13c-3.64-2.49-5.67-4.24-13.39-4.65-5.64-0.3-12.12 2.43-17.1 4.75-4.25 1.96-7.1-4.29-3.85-6.54 7.15-3.98 12.59-6.07 20.81-5.87 7.16 0.19 12.53 2.48 16.01 5.8 3.12 2.41 1.38 7.85-2.48 6.51z" fill="url(#paint3_linear_1567_62574)"/>
  <path d="m121.4 174.6c-6.97 0-12.41-1.33-15.84-1.98-2.85-0.6-3.2-5.44-0.55-6.2 1.7-0.55 3.32 0.22 4.96 0.52 6.25 1.21 9.17 1.26 14.01 0.81 12.11-1.11 19.26-5.72 26.23-14.01 2.75-3.33 8.12 0.07 6.7 3.83-0.9 2.73-12.37 17.03-35.51 17.03z" fill="url(#paint4_linear_1567_62574)"/>
  <path d="m194.8 102h-2.98c-4.91-8.95-17.08-9.65-29.71-9.65-11.78 0-27.09 1.05-31.64 11.77-0.36 0.76-0.56 1.52-0.8 0.83-2.95-0.91-8.25-0.91-10.94-0.07-3.47-10.2-15.08-12.53-32.13-12.53-11.54 0-23.45 1.7-28.95 9.65h-3.77c-6.97 0-6.44 11.23-0.74 11.23h1.33c0.63 18.09 9.22 31.74 31.36 31.74h2.48c20.77 0 30.57-12.31 31.51-32.37 0.18-0.29 0.18-0.72 0.18-0.72 2.03-0.97 6.72-1.27 9.13-0.15v1.33c0.66 17.06 8.94 31.65 31.52 31.65h1.9c20.39 0 30.82-11.24 32.25-31.3 7.15 0.58 6.36-11.41 0-11.41z" fill="url(#paint5_linear_1567_62574)"/>
  <path d="m162.7 99.36c-11.91 0-26.58 0.98-26.58 11.97 0 15.45 5.6 26.38 25.98 26.38h0.79c18.33 0 24.07-11.85 24.67-26.8 0.36-9.32-9.42-11.55-24.86-11.55z" fill="url(#paint6_linear_1567_62574)"/>
  <path d="m89.91 99.61c-15.5 0-26.77 1.8-27.29 11.2-0.37 10.47 3.45 26.5 23.02 26.8l2.61 0.1c18.21 0 24.32-10.43 24.69-26.28 0.29-9.37-8.99-11.82-23.03-11.82z" fill="url(#paint7_linear_1567_62574)"/>
  <path d="m154.8 105.2c-9.68 0-13.55 6.34-13.05 11.9 0.14 1.71 0.49 3.91 2.19 4.31 2.89 0.76 4.31-1.26 3.91-3.27-0.87-4.03 0.25-6.34 6.25-6.49 5.44-0.16 4.89-6.45 0.7-6.45z" fill="url(#paint8_linear_1567_62574)"/>
  <path d="m80.28 105.5c-9.23 0-13.27 5.26-13.27 10.59 0 1.8 0.5 4.85 1.8 5.25 2.82 0.98 4.77-1.05 4.41-3.14-0.94-4.59 0.7-6.5 6.69-6.64 5.3-0.12 4.67-6.06 0.37-6.06z" fill="url(#paint9_linear_1567_62574)"/>
  <defs>
    <linearGradient id="paint0_linear_1567_62574" x1="38.51" x2="210.5" y1="125.2" y2="125.2" gradientUnits="userSpaceOnUse">
      <stop stop-color="#DB8863" offset="0"/>
      <stop stop-color="#EBA178" offset="1"/>
    </linearGradient>
    <linearGradient id="paint1_linear_1567_62574" x1="46.23" x2="203.2" y1="125.4" y2="125.4" gradientUnits="userSpaceOnUse">
      <stop stop-color="#FED98E" offset="0"/>
      <stop stop-color="#F9B781" offset="1"/>
    </linearGradient>
    <linearGradient id="paint2_linear_1567_62574" x1="72.19" x2="114.6" y1="83.95" y2="83.95" gradientUnits="userSpaceOnUse">
      <stop stop-color="#A55C4A" offset="0"/>
      <stop stop-color="#753A2B" offset="1"/>
    </linearGradient>
    <linearGradient id="paint3_linear_1567_62574" x1="137.1" x2="177.2" y1="73.89" y2="73.89" gradientUnits="userSpaceOnUse">
      <stop stop-color="#753B2C" offset="0"/>
      <stop stop-color="#602E21" offset="1"/>
    </linearGradient>
    <linearGradient id="paint4_linear_1567_62574" x1="102.9" x2="157.4" y1="163.7" y2="163.7" gradientUnits="userSpaceOnUse">
      <stop stop-color="#753B2C" offset="0"/>
      <stop stop-color="#6C3929" offset="1"/>
    </linearGradient>
    <linearGradient id="paint5_linear_1567_62574" x1="49.43" x2="199.7" y1="118.6" y2="118.6" gradientUnits="userSpaceOnUse">
      <stop stop-color="#572619" offset="0"/>
      <stop stop-color="#603829" offset="1"/>
    </linearGradient>
    <linearGradient id="paint6_linear_1567_62574" x1="142.8" x2="182.8" y1="100.7" y2="135.7" gradientUnits="userSpaceOnUse">
      <stop stop-color="#7A4830" offset="0"/>
      <stop stop-color="#663623" offset="1"/>
    </linearGradient>
    <linearGradient id="paint7_linear_1567_62574" x1="68.57" x2="108.6" y1="101.1" y2="136.1" gradientUnits="userSpaceOnUse">
      <stop stop-color="#7A4830" offset="0"/>
      <stop stop-color="#663623" offset="1"/>
    </linearGradient>
    <linearGradient id="paint8_linear_1567_62574" x1="141.6" x2="157.9" y1="113.4" y2="113.4" gradientUnits="userSpaceOnUse">
      <stop stop-color="#AD6A51" offset="0"/>
      <stop stop-color="#B37055" offset="1"/>
    </linearGradient>
    <linearGradient id="paint9_linear_1567_62574" x1="67.01" x2="83.63" y1="113.5" y2="113.5" gradientUnits="userSpaceOnUse">
      <stop stop-color="#AD6A51" offset="0"/>
      <stop stop-color="#B37055" offset="1"/>
    </linearGradient>
  </defs>
</svg>