<svg xmlns="http://www.w3.org/2000/svg" width="256" height="256" fill="none" viewBox="0 0 256 256">
<!-- SVG created with Arrow, by QuiverAI (https://quiver.ai) -->
  <path d="m127.7 4.91c-67.76 0-123.1 55.32-123.1 123.1 0 68.61 54.46 123.1 123.1 123.1 68.37 0 123.4-54.22 123.4-123.1 0-67.77-55.35-123.1-123.4-123.1z" fill="url(#paint0_linear_45_1567)"/>
  <path d="m126.9 18.78c-58.64 0-108.8 49.58-108.8 109.4 0 59.14 49.16 107.8 109.2 107.8 59.93 0 109.7-48.79 109.7-108.2s-49.85-109-110-109z" fill="url(#paint1_linear_45_1567)"/>
  <path d="m117.8 225c54.17 0 107.9-49.19 107.9-108.3 0-54.9-42.77-88.82-98.78-88.9-35.64-0.05-64.86 16.59-80.61 42.1-2.93 4.77 0.6 12.8 7.5 12.29 2.58-0.2 4.6-2.81 5.76-4.85 9.59-14.26 31.54-34.36 67.32-34.36 31.1 0 55.82 17.26 70.11 35.9 1.78 2.48 3.49 4.15 6.29 3.92 6.52-0.51 8.02-8.53 4.86-12.71-20.04-26.38-46.93-42.06-81.42-42.28-35.27-0.23-63.4 15.85-80.41 42.02-3.28 4.79-0.51 12.34 7.04 12.92 3.38 0.28 5.71-2.94 7.27-5.44 13.26-20.11 35.45-34.09 66.25-34.09 42.94 0 63.81 28.18 70.43 36.15 2.45 3.13 4.2 3.73 6.75 3.43 5.87-0.68 6.89-7.91 4.03-12.38-14.88-23.26-43.19-42.45-81.08-42.87-36.82-0.42-64.12 16.5-80.79 42.29-3.52 5.15-0.32 12.61 6.48 13.06 3.85 0.27 5.99-2.75 7.96-5.75 12.76-19.63 35.27-33.69 66.07-33.89 47.72-0.31 68.28 31.46 73.35 37.59 2.16 2.74 7.44 2.8 9.66-0.23 2.99-3.77 1.67-8.12-0.67-11.45-14.55-22.01-41.91-40.91-81.83-41.62-37.82-0.46-64.68 17.57-80.76 42.03-3.33 4.94-0.87 12.64 6.68 13.17 4.04 0.3 5.96-2.7 7.88-5.6 12.13-18.79 34.32-33.9 65.84-33.9 42.13 0 62.11 26.12 70.9 36.65 2.34 2.95 3.99 3.43 6.69 3.05 5.96-0.83 6.54-7.3 3.49-12.32-15.69-25.45-43.25-42.62-80.95-43.04-37.8-0.42-64.17 17.43-80.58 41.79-3.38 5.09-0.72 12.83 6.68 13.41 4.2 0.36 6.27-2.81 8.08-5.37 12.75-19.9 35.04-34.21 65.59-34.21 35.47 0 57.66 19.74 69.98 36.48 2.02 3.08 4.26 3.67 7.12 3.33 5.07-0.62 6.84-7.63 3.31-12.77-17.61-26.3-46.84-42.29-80.26-42.39-37.35-0.1-64.12 16.4-80.53 41.57-3.57 5.35-0.94 13.04 6.71 13.37 3.95 0.17 6.07-2.85 7.62-5.45 11.81-19.2 34.15-34.15 65.89-34.15 33.98 0 56.22 18.54 70.32 36.65 2.61 3.43 4.42 3.43 6.92 3.1 5.96-0.83 7.12-7.46 3.84-12.7-16.08-25.23-43.79-42.39-80.51-42.65-37.35-0.27-64.86 17-80.94 41.83-3.76 5.55-0.53 12.78 6.48 13.42 4.15 0.41 6.22-2.85 7.83-5.45 12.19-19.69 34.7-34.19 66.11-34.19 34.49 0 56.79 18.54 70.54 36.34 2.9 3.82 4.88 3.76 7.05 3.41 5.81-0.98 7.08-7.83 3.55-12.97-17.66-25.74-45.93-42.13-80.72-42.34-38.83-0.24-65.19 17.4-80.98 42.07-4 6.01-0.52 12.64 6.73 13.23 4.57 0.39 6.64-3.15 8.25-5.7 12.13-19.4 34.59-33.9 65.62-34 36.98-0.12 58.82 21.73 70.55 37.67 2.39 3.33 6.59 2.55 7.47 2.1 5.12-2.5 5.38-8.45 2.48-12.92-17.5-26.37-45.52-42.4-80.26-42.55-38.48-0.15-65.25 17.64-80.79 41.93-3.71 5.71-0.48 12.72 6.92 13.42 4.41 0.41 6.23-2.95 7.99-5.6 12.24-19.64 34.75-34.14 65.87-34.14 37.03 0 57.98 22.16 70.05 37.79 2.07 2.8 5.5 2.48 6.51 2.06 5.28-2.06 5.92-7.82 2.65-12.85-17.36-26.17-45.33-42.2-79.18-42.46-38.48-0.31-64.9 17.21-80.65 41.88-3.76 5.71-0.48 12.72 6.77 13.22 4.77 0.36 6.69-3.12 8.25-5.72 11.76-19.31 34.37-33.86 65.54-33.86 36.87 0 58.21 22.36 70.34 38.04 2.5 3.43 7.49 2.21 8.31 1.49 4.58-3.04 4.45-8.03 1.36-12.71-17.28-26.02-45.2-42.01-79.98-42.39-38.27-0.42-65.16 16.95-80.7 41.88-3.28 5.3-0.52 12.76 6.98 13.27 4.1 0.31 6.02-2.96 7.62-5.71 12.08-19.49 34.54-33.94 66-33.94 38.04 0 60.13 23.26 71.89 38.94 2.02 2.8 6.37 1.43 7.01 0.86 4.4-3.81 3.63-8.1 0.64-12.89l-0.04-0.1c-17.07-25.74-45.34-42.15-79.43-42.31-38.68-0.22-65.04 17.3-80.68 41.92-4 6.05-0.37 12.68 6.78 13.27 4.57 0.37 6.49-3.11 7.99-5.67 12.24-19.41 34.75-33.91 65.92-33.91 37.19 0 59.23 22.67 71.09 38.4 2.39 3.21 6.68 1.71 7.5 0.98 4.51-3.77 3.64-8.39 0.64-12.86" fill="#F9F59E"/>
  <path d="m111.1 116.9c0-16.95-14.07-30.69-30.25-30.69h-2.59c-16.19 0-30.21 13.74-30.26 31.05-0.02 5.45 3.73 7.23 7.11 7.18 4.29-0.06 7.24-3.01 7.24-7.54 0-9.28 8.04-16.01 16.24-16.01 9.64 0 18.08 7.24 18.08 16.54 0 4.77 3.58 6.77 7.18 6.58 5.12-0.26 7.25-3.54 7.25-7.11z" fill="url(#paint2_linear_45_1567)"/>
  <path d="m143.4 116.9c0-16.95 14.06-30.75 30.3-30.75h2.55c16.24 0 30.1 13.8 30.1 31.11 0 5.14-2.85 7.28-7.14 7.12-4.29-0.15-7.04-2.95-7.04-6.95 0-9.69-7.71-16.8-16.74-16.54-9.64 0.26-17.49 8.1-17.65 16.54-0.05 4.67-3.33 6.59-6.98 6.58-4.72-0.05-7.4-3.38-7.4-7.11z" fill="url(#paint3_linear_45_1567)"/>
  <path d="m45.96 131.9c-11.43 0-19.47 6.2-19.47 13.32 0 7.94 9.22 12.51 19.47 12.51s19.17-5.81 19.17-12.51c0-7.93-8.15-13.32-19.17-13.32z" fill="#FCAD89"/>
  <path d="m208.2 131.8c-11.43 0-18.62 6.35-18.62 13.47 0 7.94 8.49 12.47 17.92 12.31 10.76-0.21 19.45-6.07 19.66-13.02 0.26-7.29-7.38-12.76-18.96-12.76z" fill="#FCAD89"/>
  <path d="m177.5 149.8h-100.1c-5.24 0-7.43 4.78-7.32 8.37 0.56 28.73 23.8 55.36 57.45 55.16 31.46-0.16 57.2-26.18 57.35-55.11 0.06-4.41-2.44-8.42-7.4-8.42z" fill="url(#paint4_linear_45_1567)"/>
  <path d="m85.77 165.2c2.95 19.74 19.47 34.84 41 34.84 21.24 0 38.74-16.14 42.65-34.84h-83.65z" fill="#F9F59D"/>
  <defs>
    <linearGradient id="paint0_linear_45_1567" x1="4.661" x2="251.2" y1="128" y2="128" gradientUnits="userSpaceOnUse">
      <stop stop-color="#F38463" offset="0"/>
      <stop stop-color="#F6966D" offset="1"/>
    </linearGradient>
    <linearGradient id="paint1_linear_45_1567" x1="18.07" x2="237" y1="127.4" y2="127.4" gradientUnits="userSpaceOnUse">
      <stop stop-color="#FBD6A0" offset="0"/>
      <stop stop-color="#F8B079" offset="1"/>
    </linearGradient>
    <linearGradient id="paint2_linear_45_1567" x1="79.51" x2="79.51" y1="86.19" y2="124.4" gradientUnits="userSpaceOnUse">
      <stop stop-color="#EA7463" offset="0"/>
      <stop stop-color="#EA755D" offset="1"/>
    </linearGradient>
    <linearGradient id="paint3_linear_45_1567" x1="174.9" x2="174.9" y1="86.13" y2="124" gradientUnits="userSpaceOnUse">
      <stop stop-color="#EA7463" offset="0"/>
      <stop stop-color="#EA755D" offset="1"/>
    </linearGradient>
    <linearGradient id="paint4_linear_45_1567" x1="127.5" x2="127.5" y1="149.8" y2="213.3" gradientUnits="userSpaceOnUse">
      <stop stop-color="#EA7463" offset="0"/>
      <stop stop-color="#EA755D" offset="1"/>
    </linearGradient>
  </defs>
</svg>