<svg xmlns="http://www.w3.org/2000/svg" width="33" height="33" fill="none" viewBox="0 0 33 33">
<!-- SVG created with Arrow, by QuiverAI (https://quiver.ai) -->
  <path d="m16.5 0.43c-8.83 0-16.03 7.22-16.03 16.15 0 8.86 7.18 15.99 15.96 15.99h0.07c8.85 0 16.03-7.16 16.03-16 0-8.92-7.2-16.14-16.03-16.14z" fill="#C5566F"/>
  <path d="m16.43 1.79c-7.98 0-14.67 6.68-14.67 14.79 0 8.18 6.63 14.56 14.64 14.56h0.07c8.1 0 14.72-6.6 14.72-14.57 0-8.09-6.68-14.78-14.76-14.78z" fill="#FFD3B3"/>
  <path d="m16.36 3.44c-7.39 0-13.65 6.03-14.55 12.61 0.9 7.11 7 13.06 14.55 13.06h0.05c7.66 0 13.88-6.05 14.72-13.04-0.91-6.73-7.22-12.63-14.77-12.63z" fill="#fca"/>
  <path d="m7.13 23.29c2.08 0 3.76-1.94 3.76-3.52 0-1.72-1.53-3.24-3.63-3.24-1.93 0-3.31 1.61-3.31 3.32 0 1.73 1.37 3.44 3.18 3.44z" fill="url(#paint0_radial_1322_4003)"/>
  <path d="m25.67 23.29c1.95 0 3.4-1.93 3.4-3.51 0-1.7-1.38-3.21-3.32-3.21-1.77 0-3.14 1.51-3.14 3.28 0 1.7 1.35 3.44 3.06 3.44z" fill="url(#paint1_radial_1322_4003)"/>
  <path d="m16.48 24.85c-3.37 0-4.87-2-5.55-3.46-0.19-0.45 0.05-1.07 0.66-1.07 0.34 0 0.59 0.22 0.74 0.62 0.58 1.34 1.81 2.58 4.17 2.58h0.03c2.37-0.01 3.6-1.39 4.18-2.73 0.19-0.45 0.45-0.56 0.76-0.53 0.59 0.07 0.81 0.65 0.56 1.2-0.79 1.67-2.28 3.39-5.55 3.39z" fill="#C9453D"/>
  <path d="m10.52 18.41c-0.14 0-0.27-0.04-0.39-0.11-1.74-0.96-5.06-3.02-5.06-5.76 0-2.01 1.35-3.52 3.14-3.52 1.13 0 1.87 0.48 2.33 1 0.53-0.66 1.26-1 2.14-1 1.83 0 3.02 1.69 3.02 3.42 0 2.87-3.19 4.97-4.88 5.87-0.12 0.06-0.21 0.1-0.3 0.1z" fill="#C9453D"/>
  <path d="m10.59 16.9c-1.5-0.86-4-2.51-4-4.32 0-1.32 0.87-2 1.62-2 1 0 1.48 0.86 1.6 1.12 0.13 0.19 0.36 0.32 0.62 0.32 0.3 0 0.55-0.17 0.67-0.46 0.21-0.56 0.72-0.98 1.58-0.98 0.98 0 1.58 0.99 1.58 1.98 0 1.71-2 3.4-3.67 4.34z" fill="url(#paint2_linear_1322_4003)"/>
  <path d="m22.49 18.41c-0.13 0-0.27-0.04-0.39-0.11-1.74-0.96-4.94-3.02-4.94-5.76 0-1.86 1.29-3.52 3.17-3.52 1 0 1.79 0.37 2.25 0.96 0.53-0.63 1.3-0.96 2.13-0.96 1.91 0 3.01 1.69 3.01 3.45 0 2.61-2.79 4.77-4.87 5.86-0.14 0.05-0.24 0.08-0.36 0.08z" fill="#C9453D"/>
  <path d="m22.49 16.91c-1.64-0.91-3.85-2.55-3.85-4.34 0-1.24 0.81-1.97 1.63-1.97 0.9 0 1.44 0.81 1.58 1.13 0.27 0.38 1.07 0.38 1.29-0.17 0.34-0.68 0.83-0.96 1.55-0.96 1.03 0 1.61 0.93 1.61 1.92 0 1.65-1.79 3.37-3.81 4.39z" fill="url(#paint3_linear_1322_4003)"/>
  <defs>
    <radialGradient id="paint0_radial_1322_4003" cx="0" cy="0" r="1" gradientTransform="translate(7.117 19.92) scale(3.429 3.373)" gradientUnits="userSpaceOnUse">
      <stop stop-color="#F97284" offset="0"/>
      <stop stop-color="#F97780" stop-opacity=".7604" offset=".5312"/>
      <stop stop-color="#F9797D" stop-opacity=".38" offset="1"/>
    </radialGradient>
    <radialGradient id="paint1_radial_1322_4003" cx="0" cy="0" r="1" gradientTransform="translate(25.65 19.93) scale(3.238 3.368)" gradientUnits="userSpaceOnUse">
      <stop stop-color="#F97284" offset="0"/>
      <stop stop-color="#F97780" stop-opacity=".7604" offset=".5312"/>
      <stop stop-color="#F9797D" stop-opacity=".38" offset="1"/>
    </radialGradient>
    <linearGradient id="paint2_linear_1322_4003" x1="10.43" x2="10.43" y1="10.58" y2="16.9" gradientUnits="userSpaceOnUse">
      <stop stop-color="#FE969A" offset="0"/>
      <stop stop-color="#FE5952" offset="1"/>
    </linearGradient>
    <linearGradient id="paint3_linear_1322_4003" x1="22.47" x2="22.47" y1="10.6" y2="16.91" gradientUnits="userSpaceOnUse">
      <stop stop-color="#FE969A" offset="0"/>
      <stop stop-color="#FE5952" offset="1"/>
    </linearGradient>
  </defs>
</svg>