<svg xmlns="http://www.w3.org/2000/svg" width="256" height="256" viewBox="0 0 256 256">
<!-- SVG created with Arrow, by QuiverAI (https://quiver.ai) -->
  <path d="m127.5 9.01c-68.39 0-123.7 49.42-123.7 119.7 0 68.56 54.5 118.3 123.2 118.3 69.79 0 126-48.87 126-119 0-67.44-53.01-119-125.4-119z" fill="#84564A"/>
  <path d="m127.1 20.27c-60.84 0-111.8 43.34-111.8 107.6 0 61.91 48.58 107.2 111.6 107.2 63.98 0 113.6-45.02 113.6-107.2 0-60.83-47.46-107.6-113.3-107.6z" fill="#FED7A6"/>
  <path d="m127.1 218.3c-58.05 0-103.9-33.8-112.1-81.05 3.71 53.37 50.06 97.69 112 97.69 63.97 0 112.7-45.28 113.2-106.2-7.74 49.84-51.62 89.56-113.2 89.56z" fill="#FDBD93"/>
  <path d="m71.89 119.6c-12.12 0-21.78-8.44-25.36-19.18-1.44-4.36 1.71-7.96 5.58-7.96 3.23 0 5.45 2.09 6.25 5.2 1.43 5.68 7.03 9.68 12.55 9.68 6.69 0 11.75-4.81 13.44-10.22 1.11-3.64 4.03-4.7 6.44-4.54 4.22 0.28 6.75 4.5 5.5 8.21-4.02 12.22-14.35 18.81-24.4 18.81z" fill="#84564A"/>
  <path d="m184.6 119.6c-12.13 0-21.16-8.44-25.15-18.47-1.88-4.75 1.5-8.59 5.51-8.47 3.09 0.09 5.11 2.08 6.21 5.4 1.96 6.13 7.71 9.28 13.89 9.28 6.34 0 11.17-5.11 12.16-9.37 0.97-4.12 4.01-5.33 6.77-5.21 4.43 0.2 6.44 4.73 5.37 8.21-3.56 11.87-14.11 18.63-24.76 18.63z" fill="#84564A"/>
  <path d="m174.4 177c-4.53 0-5.78-3.69-5.78-6.07 0-16.62-17.48-31.19-41.17-31.19-22.94 0-39.94 15.48-39.94 30.97 0 4.64-3.32 6.17-6.16 6.17-4.16 0-6.44-3.26-6.44-6.08 0-21.58 21.09-42.89 52.88-42.89 29.12 0 53.07 20.77 53.07 43.03 0 4.1-2.78 6.06-6.46 6.06z" fill="#84564A"/>
  <path d="m56.92 124.2c-8.17 10.59-16.3 24.04-16.3 31.58 0 9.32 7.59 15.01 16.06 15.01 9.13 0 15.12-7.93 15.12-14.96 0-8.82-9.3-22.96-14.88-31.63z" fill="#7BA3CC"/>
  <path d="m53.42 164.8c-4.7 0-7.15-5.1-7.15-9.27 0-2.08 1.11-3.25 2.62-3.25 1.55 0 2.46 1.12 2.73 2.7 0.58 3.24 0.94 3.32 2.21 3.8 1.89 0.72 2.63 1.46 2.63 3.26 0 1.53-1.25 2.76-3.04 2.76z" fill="#FEFFFE"/>
</svg>