<svg xmlns="http://www.w3.org/2000/svg" width="250" height="250" fill="none" viewBox="0 0 250 250">
<!-- SVG created with Arrow, by QuiverAI (https://quiver.ai) -->
  <path d="m125 3.66c-66.6 0-121 54.09-121 122.2s54.4 120.9 121 120.5c66.93-0.37 121.3-52.83 121.3-121.3 0-67.31-53.63-121.4-121.3-121.4z" fill="url(#paint0_linear_3_103)"/>
  <path d="m124.7 13.55c-60.25 0-111.3 49.54-111.3 111.4 0 62.22 50.53 110.9 111.4 110.9 61.54 0 111.4-48.65 111.4-109.9 0-61.84-49.69-112.4-111.5-112.4z" fill="url(#paint1_linear_3_103)"/>
  <path d="m124.9 24.71c-56.45 0-105 49.4-105 104.5 0 20.59 5.01 36.7 11.9 47.59-10.22-15.41-18.43-30.72-18.43-53 0-58 49.68-110.2 110.9-110.2 50.57 0 94.49 36.23 106.6 80.39-16.49-40.91-57.83-69.29-106-69.29z" fill="#FDDFCA"/>
  <path d="m70.61 73.62c-20.17 0.77-36.3 17.63-36.65 38.17-0.37 21.03 15.9 35.15 35.37 35.21 20.38 0.07 38.09-15.54 38.09-36.32 0-20.36-16.1-37.91-36.81-37.06z" fill="#DF816B"/>
  <path d="m70.27 83.16c-16.44 0.71-26.95 14.62-26.95 28.36 0 15.47 12.44 26.99 26.48 26.99 14.98 0 29.27-12.43 29.43-27.23 0.18-15.15-12.45-28.81-28.96-28.12z" fill="#fff"/>
  <path d="m73.69 94.72c-9.05 0-15.09 7.7-15.09 15.33 0 8.44 7.65 15.02 15.13 14.87 9.05-0.2 15.2-7.71 15.05-15.08-0.16-8.16-6.71-15.12-15.09-15.12z" fill="#000"/>
  <path d="m67.97 100.7c-3.58 1.05-4.34 4.48-3.66 6.86 1.03 3.61 5.21 4.46 7.67 2.38 2.96-2.58 2.54-5.03 1.59-7.02-1.03-2.12-3.29-2.9-5.6-2.22z" fill="#fff"/>
  <path d="m177.8 73.43c-20.37 0-36.3 17.63-36.3 37.31 0 18.74 15.2 36.35 36.22 36.35 19.48 0 36.38-15.78 36.26-35.88-0.11-19.88-14.98-37.78-36.18-37.78z" fill="#DF816B"/>
  <path d="m177.8 83.02c-15.47 0-27.87 13.7-27.87 28.25 0 15.26 12.48 26.99 27.35 26.99 14.91 0 28.56-12.73 28.85-27.17 0.31-15.7-12.22-28.07-28.33-28.07z" fill="#fff"/>
  <path d="m175.8 94.62c-9.2 0.69-14.8 7.67-14.56 15.68 0.32 8.71 7.96 14.58 15.33 14.42 8.69-0.2 14.37-8.04 14.07-14.81-0.39-8.3-6.71-15.87-14.84-15.29z" fill="#000"/>
  <path d="m170 100.7c-3.9 0.92-4.49 4.34-3.67 6.76 1.41 4.39 7.17 4.16 9 0.52 1.91-3.18 1.16-6.93-3.34-7.56-0.68-0.1-1.49 0.08-1.99 0.28z" fill="#fff"/>
  <path d="m48.5 150.3c-8.29 0-12.07 4.82-12.07 8.34 0 4.82 6.25 7.65 12.19 7.65 7.59 0 12.3-4.11 12.3-7.68 0-4.49-4.88-8.31-12.42-8.31z" fill="#F48597"/>
  <path d="m200.7 150.2c-8.09 0-12.15 4.47-12.15 7.97 0 5.09 6.18 7.89 12.04 7.75 7.8-0.2 12.17-4.66 12.17-8.02 0-4.46-5.31-7.7-12.06-7.7z" fill="#F48597"/>
  <path d="m124.7 140.1c-15 0-24.7 13.6-24.7 29.71 0 15.13 10.5 26.7 24.5 26.7 13.22 0 24.19-13.12 24.19-27.26 0-14.51-10.86-29.15-23.99-29.15z" fill="#000"/>
  <path d="m124.4 148c-10.3 0-16.13 10.8-16.13 21.19 0 10.03 6.92 18.79 15.95 18.79 9.73 0 15.77-10.47 15.77-19.12 0-9.71-7.16-20.86-15.59-20.86z" fill="url(#paint2_linear_3_103)"/>
  <path d="m124.7 172.5c-6.88-0.11-10.67 2.68-14.01 6.51 3.09 6.2 8.18 8.97 13.57 8.9 6.56-0.09 12.06-5.04 14.31-10.04-2.6-2.53-6.29-5.25-13.87-5.37z" fill="url(#paint3_linear_3_103)"/>
  <defs>
    <linearGradient id="paint0_linear_3_103" x1="125.2" x2="125.2" y1="3.656" y2="246.3" gradientUnits="userSpaceOnUse">
      <stop stop-color="#DC7868" offset="0"/>
      <stop stop-color="#DF816B" offset="1"/>
    </linearGradient>
    <linearGradient id="paint1_linear_3_103" x1="124.8" x2="124.8" y1="13.55" y2="235.8" gradientUnits="userSpaceOnUse">
      <stop stop-color="#FECEA2" offset="0"/>
      <stop stop-color="#F8A785" offset="1"/>
    </linearGradient>
    <linearGradient id="paint2_linear_3_103" x1="124.2" x2="124.2" y1="148" y2="188" gradientUnits="userSpaceOnUse">
      <stop stop-color="#C54259" offset="0"/>
      <stop stop-color="#D25A72" offset="1"/>
    </linearGradient>
    <linearGradient id="paint3_linear_3_103" x1="124.6" x2="124.6" y1="172.5" y2="187.9" gradientUnits="userSpaceOnUse">
      <stop stop-color="#DF516A" offset="0"/>
      <stop stop-color="#F06E7C" offset="1"/>
    </linearGradient>
  </defs>
</svg>