<svg xmlns="http://www.w3.org/2000/svg" width="200" height="200" fill="none" viewBox="0 0 200 200">
<!-- SVG created with Arrow, by QuiverAI (https://quiver.ai) -->
  <path d="m187.8 98.05c0.41 46.12-34.07 82.05-87.74 82.05-46.41 0-88.42-33.38-88.42-81.68 0-47.66 35.61-92.51 88.1-92.51 48.98 0 87.69 40.17 88.06 92.14z" fill="#FCC975" stroke="#895042" stroke-miterlimit="10" stroke-width="6.5"/>
  <path d="m178.4 58.9c3.51 9.64 5.46 20.62 5.97 31.89 2.29 47.72-29.6 72-51.33 81.14-10.6 4.63-25.44 6.42-31.95 6.18 8-1.43 8.98-16.48 8.98-16.48 37.01-2.73 62.74-31.88 69.64-59.76 2.69-10.75 2.19-27.37-1.31-42.97z" fill="#FC9F78"/>
  <path d="m19.37 65.13c-3.28 9.65-4.65 18.55-5.26 29.83-2.02 32.31 12.75 55.13 27.82 66.93l5.69-14.83c-19.74-14.25-27.48-32.38-29.28-53.35-0.73-8.69-0.6-18.14 1.03-28.58z" fill="#FC9F78"/>
  <path d="m41.11 92.02c-9.25 0-15.87 4.57-15.87 9.44 0 5.73 7.74 9.78 16.98 9.78 9.16 0 16.17-4.38 16.17-9.48 0-3.81-6.94-9.74-17.28-9.74z" fill="#F9A09B"/>
  <path d="m156 97.27c-9.89 0-16.88 4.91-16.88 9.9 0 5.45 7.66 9.75 17.05 9.75 9.31 0 16.46-4.9 16.46-9.79 0-5.32-7.38-9.86-16.63-9.86z" fill="#F9A09B"/>
  <path d="m63.08 54.5c-12.47 0-22.59 10.4-22.59 23.24 0 12 9.61 22 22.54 22 12.58 0 22.36-10.82 22.36-22.22 0-11.72-10-23.02-22.31-23.02z" fill="#895042"/>
  <path d="m62.71 59.95c-9.16 0-17.13 8.42-17.13 17.75 0 8.88 7.7 17.59 17.08 17.59 10.05 0 18.01-9.17 18.01-17.76 0-9-7.85-17.58-17.96-17.58z" fill="#FCECC8"/>
  <path d="m66.21 70.77c7.51 0 13.43-5.96 11.48-7.35-3.87-2.74-6.91-4.93-12.27-4.93-7.28 0-12.96 6.06-12.96 12.17 0 7.36 5.73 13.18 13.56 13.18 7.48 0 12.72-6.05 12.72-10.96 0-2.5-1.02-4.96-1.91-5.92-1.42-1.51-4.79 3.81-10.62 3.81z" fill="#895042"/>
  <path d="m61.08 69.43c3.28 0 4.31-1.97 4.31-3.64 0-2.58-1.56-4.26-4.31-4.26-2.63 0-3.99 1.78-3.99 4.1 0 1.98 1.43 3.8 3.99 3.8z" fill="#FCECC8"/>
  <path d="m71.63 78.62c2.31 0 2.95-1.33 2.95-2.25 0-1.52-0.94-2.54-2.56-2.54-1.57 0-2.4 1.08-2.4 2.45 0 1.15 0.87 2.34 2.01 2.34z" fill="#FCECC8"/>
  <path d="m132.9 60.5c-12.59 0-23.15 10.22-23.15 23.71 0 11.74 9.61 21.65 22.71 21.65 12.5 0 22.28-10.74 22.28-22.14 0-11.29-9.5-23.22-21.84-23.22z" fill="#895042"/>
  <path d="m132.6 65.75c-9.24 0-17.89 7.41-17.89 18.07 0 9.35 7.9 17.47 17.83 17.47 10.15 0 17.87-9.23 17.87-17.74 0-9.52-8.12-17.8-17.81-17.8z" fill="#FCECC8"/>
  <path d="m129.1 76.92c7.05 0 13.85-4.76 13.33-6.89-0.7-2.87-7.18-7.12-12.27-7.12-7.28 0-12.9 5.75-12.9 11.86 0 7.36 5.52 15.1 13.56 15.1 7.01 0 12.71-6.81 12.71-12.5 0-3.84-2.4-7.6-4.19-9.8-1.47-1.89-6.03 9.35-10.24 9.35z" fill="#895042"/>
  <path d="m126.2 75.42c3.29 0 3.9-2.29 3.9-3.66 0-2.58-1.73-3.65-3.9-3.65-2.62 0-4.46 1.27-4.46 3.59 0 1.98 1.91 3.72 4.46 3.72z" fill="#FCECC8"/>
  <path d="m135.9 85.18c2.32 0 2.74-1.48 2.74-2.4 0-1.52-1.06-2.39-2.34-2.39-1.57 0-2.62 1-2.62 2.37 0 1.15 1.09 2.42 2.22 2.42z" fill="#FCECC8"/>
  <path d="m48.44 40.7c11.01-5.25 24.27-4.63 34.61 1.67" stroke="#895042" stroke-linecap="round" stroke-linejoin="round" stroke-width="11"/>
  <path d="m117.6 53.66c10.43-5.39 22.21-5.02 34.31 0.86" stroke="#895042" stroke-linecap="round" stroke-linejoin="round" stroke-width="11"/>
  <path d="m74.36 109.5c3.45 2.64 4.96 7.52 4.92 11.49" stroke="#895042" stroke-linecap="round" stroke-linejoin="round" stroke-width="7"/>
  <path d="m78.9 114.9c6.07-2.4 20.27-4.27 39.09 7.73" stroke="#895042" stroke-linecap="round" stroke-linejoin="round" stroke-width="7"/>
  <path d="m120.8 141.2c2.91 5.91 3.1 14.79-11.6 20.22l-2.42-0.79-1.3-4.42 8.96-5.03 6.36-9.98z" fill="#FC9F78"/>
  <path d="m100.2 181.2c2.27-4.18 0.79-10.18-1.39-12.04 4.84-2.94 3.34-10.17-3.31-13.41 7.65-1.83 23.42-6.75 23.64-13.53 0.39-11.91-14.96-6.12-21.11-4.53-8.84 2.49-17.25 5.73-25.19 6.47-5 0.22-6.14-3.15-6.14-5.71-0.96-7.6-7.54-16.48-14.45-16.01-6.27 0.44-7.9 5.35-6.76 10.01 2.87 9.36 2.38 13.44-2.14 22.65-7.37 15.14 0 33.7 19.28 38.38 7.73 1.94 18.15 1.05 24.43-0.58 7.37-1.95 11.53-5.98 10.6-10.75l2.54-0.95z" fill="#FCECC8" stroke="#895042" stroke-linecap="round" stroke-linejoin="round" stroke-miterlimit="10" stroke-width="6"/>
</svg>