<svg xmlns="http://www.w3.org/2000/svg" width="200" height="200" fill="none" viewBox="0 0 200 200">
<!-- SVG created with Arrow, by QuiverAI (https://quiver.ai) -->
  <path d="m97.64 194.6c-53.32 0-93.01-24.2-93.01-72.58 0-45.2 35.33-99.28 92.99-98.2 56.1 0 94.96 47.43 92.35 99.91-2.34 47.55-35.8 70.87-92.33 70.87z" fill="#F9F2D9"/>
  <path d="m97.92 34.22c-50.28 0-87.89 43.52-87.89 89.76 0 28.48 17.88 57.53 74.16 58.08 54.82 0.53 100-19.16 102.7-56.24-0.06-44.79-28.9-91.6-89.01-91.6z" fill="#F9F0D5"/>
  <path d="m97.62 22.08c-57.48-1-94.52 51.4-94.52 99.63 0 46.56 36.82 76 94.31 76 58.08 0 95.69-27.94 95.69-76.92 0-51.73-39.31-98.71-95.48-98.71zm0.53 169c-51.14 0-88.28-22.16-88.28-69.42 0-44.2 36.19-92.86 88.02-92.86 53.2 0 88.69 44.28 88.46 92.87-0.23 45.65-33.87 69.41-88.2 69.41z" fill="#724D3B"/>
  <path d="m155.8 23.92-16.48-0.07c-3.62-0.03-4.93 3.83-4.33 6.64 0.54 2.6 2.92 4.12 5.01 4.05l8.76 0.04-12.54 15.51c-2.17 2.92-0.39 6.39 2.87 6.37l17.37-0.12c3.34-0.03 4.57-3.39 3.92-6.25-0.72-3.08-3.27-4.01-4.92-3.97l-4.74-0.05 8.08-12.32c2.77-3.57 1.63-9.31-3-9.83z" fill="#B5DCE5" stroke="#6E4B38" stroke-miterlimit="10" stroke-width="4.406"/>
  <path d="m189 5-17.04 0.13c-4.41 0.05-5.27 4.93-4.16 7.52 0.93 2.29 2.43 2.88 4.31 2.82l9.84-0.04-14 17.09c-1.85 3.03-0.6 5.96 2.52 6.52l19.09-0.33c4.16-0.04 4.81-3.55 4.24-6.22-0.68-3.21-3.05-3.9-5.42-3.84l-4.88-0.03 9.05-15c2.61-3.26 0.97-8.06-3.55-8.62z" fill="#F9DE8D" stroke="#664434" stroke-miterlimit="10" stroke-width="4.92"/>
  <path d="m110.2 43.57 14.63 0.09c4.34 0.14 4.93 5.21 2.83 7.9l-10.29 14.75 7.49-0.08c4.05-0.02 5.3 3.69 4.12 6.03-0.94 2-2.26 2.55-3.72 2.48l-15.27-0.05c-3.75-0.1-5.55-4.44-3.42-7.38l9.99-14.72-6.38-0.03c-3.25 0-4.91-2.01-4.63-5.1 0.26-2.47 1.92-3.95 4.65-3.89z" fill="#94B5D3" stroke="#644235" stroke-miterlimit="10" stroke-width="4.49"/>
  <path d="m50.79 81.72c-14.41 0.49-25.97 11.84-25.97 24.8 0 12.97 11.43 23.67 26.15 23.89 13.88 0.22 26.27-11.26 26.27-24.4 0-13.13-11.31-24.29-26.45-24.29z" fill="#F0D6BC" stroke="#724B3A" stroke-miterlimit="10" stroke-width="5.26"/>
  <path d="m25.95 106.6 50.16-6.46c0.6 2.42 0.95 4.16 0.74 6.96-1.12 12.38-12.09 23.33-25.74 23.15-13.05-0.19-23.9-10.13-25.13-21.72l-0.03-1.93z" fill="#FEFEFE" stroke="#724B3A" stroke-miterlimit="10" stroke-width="5.26"/>
  <path d="m36.32 106.6 30.04-4.49v3.19c-0.21 7.61-6.87 13.57-14.48 13.36-7.18-0.21-13.41-4.91-15-11.84l-0.56-0.22z" fill="#6D93B0" stroke="#724B3A" stroke-miterlimit="10" stroke-width="5.26"/>
  <path d="m144.9 81.72c-13.62 0-25.87 11.13-26.07 24.27-0.2 13.13 10.84 24.45 26.51 24.47 13.14 0.02 25.75-10.66 25.99-24.05 0.23-12.63-11.29-24.69-26.43-24.69z" fill="#F0D6BC" stroke="#724B3A" stroke-miterlimit="10" stroke-width="5.26"/>
  <path d="m119.4 99.06 51.5 7.49c-0.4 11.16-11.71 23.77-25.88 23.74-13.97-0.04-26.53-10.98-26.32-24.36 0.05-2.83 0.18-4.84 0.7-6.87z" fill="#FEFEFE" stroke="#724B3A" stroke-miterlimit="10" stroke-width="5.26"/>
  <path d="m130.4 101.5 28.96 4.84c-1.79 7.23-8.51 12.63-15.73 11.62-7.82-1.09-13.31-7.16-13.23-13.97v-2.49z" fill="#6D92B0" stroke="#724B3A" stroke-miterlimit="10" stroke-width="5.26"/>
  <path d="m117 147c-4.07-10.64-10.13-23.31-19.37-23.11-9.81 0.21-17.5 17.59-17.73 28.79-0.16 10.07 8.82 7.43 14.28 6.31 3.95-0.78 8.97 1.42 14.43 1.19 2.11-0.09 5.14-0.91 6.08-0.91" fill="#F49290"/>
  <path d="m117 147c-4.07-10.64-10.13-23.31-19.37-23.11-9.81 0.21-17.5 17.59-17.73 28.79-0.16 9.02 7.92 7.05 13.38 5.93 4.81-0.99 8.95 1.17 15.33 1.38 2.11 0.02 5.14-0.72 6.08-0.72" stroke="#6C4A3A" stroke-miterlimit="10" stroke-width="5.26"/>
  <path d="m104.7 145c-1.63 1.4 4 10.43 11.01 16.06-0.9 6.1 4.38 9.99 9.55 9.67 8.63-0.52 13.75-8.48 13.53-14.32-0.32-8.01-6.63-12.61-11.95-11.98-4.59 0.51-4.3 2.18-6.8 2.59-2.5 0.42-13.47-3.64-15.34-2.02z" fill="#F9F0D5" stroke="#6C4A3A" stroke-miterlimit="10" stroke-width="5.26"/>
</svg>